# xmcd
# Track frame offsets:
# 150
# 22031
# 41793
# 65211
# 86679
# 110482
# 132175
#
# Disc length: 2082 seconds
# Revision: 0
# Processed by: cddbd v1.5.2PL0 Copyright (c) Steve Scherf et al.
# Submitted via: VisiTrax 2.10.2.252 - For more info visit www.synapsa.com
#
DISCID=63082007
DTITLE=White and Frank - Live O Five
DYEAR=2007
DGENRE=Blues
TTITLE0=Glory be
TTITLE1=Live the life I love
TTITLE2=Big leg woman
TTITLE3=It ain´t easy
TTITLE4=Sinners prayer
TTITLE5=Catfish
TTITLE6=Same thing
EXTD=
EXTT0=
EXTT1=
EXTT2=
EXTT3=
EXTT4=
EXTT5=
EXTT6=
PLAYORDER=
